<?xml version="1.0" encoding="UTF-8" standalone="no"?>
<!-- Created with Inkscape (http://www.inkscape.org/) -->

<svg
   xmlns:dc="http://purl.org/dc/elements/1.1/"
   xmlns:cc="http://creativecommons.org/ns#"
   xmlns:rdf="http://www.w3.org/1999/02/22-rdf-syntax-ns#"
   xmlns:svg="http://www.w3.org/2000/svg"
   xmlns="http://www.w3.org/2000/svg"
   xmlns:sodipodi="http://sodipodi.sourceforge.net/DTD/sodipodi-0.dtd"
   xmlns:inkscape="http://www.inkscape.org/namespaces/inkscape"
   version="1.1"
   id="svg3718"
   xml:space="preserve"
   width="244.73141"
   height="178.6927"
   viewBox="0 0 244.73141 178.6927"
   sodipodi:docname="anthemLogoWithTextWhite.svg"
   inkscape:version="0.92.2 (5c3e80d, 2017-08-06)"><metadata
     id="metadata3724"><rdf:RDF><cc:Work
         rdf:about=""><dc:format>image/svg+xml</dc:format><dc:type
           rdf:resource="http://purl.org/dc/dcmitype/StillImage" /><dc:title></dc:title></cc:Work></rdf:RDF></metadata><defs
     id="defs3722" /><sodipodi:namedview
     pagecolor="#ffffff"
     bordercolor="#666666"
     borderopacity="1"
     objecttolerance="10"
     gridtolerance="10"
     guidetolerance="10"
     inkscape:pageopacity="0"
     inkscape:pageshadow="2"
     inkscape:window-width="1301"
     inkscape:window-height="862"
     id="namedview3720"
     showgrid="false"
     inkscape:zoom="2.2147149"
     inkscape:cx="204.68226"
     inkscape:cy="57.416433"
     inkscape:window-x="1709"
     inkscape:window-y="155"
     inkscape:window-maximized="0"
     inkscape:current-layer="g3726" /><g
     id="g3726"
     inkscape:groupmode="layer"
     inkscape:label="star.transparent.white"
     transform="matrix(1.3333333,0,0,-1.3333333,-28.582435,231.27226)"><g
       id="g3728"
       transform="translate(105.8647,111.0562)"
       inkscape:export-filename="/Users/josie/Desktop/anthemLogo.svg.png"
       inkscape:export-xdpi="96"
       inkscape:export-ydpi="96"><path
         d="M 0,0 8.236,28.493 16.361,0 Z m 8.348,62.398 -29.378,-89.419 -4.136,-12.949 16.687,12.949 5.142,16.447 h 23.038 l 5.137,-16.447 17.024,-12.949 -4.135,12.949 z"
         style="fill:#f1f1f2;fill-opacity:1;fill-rule:nonzero;stroke:none"
         id="path3730"
         inkscape:connector-curvature="0" /></g><g
       id="g3732"
       transform="translate(95.854,134.6304)"
       inkscape:export-filename="/Users/josie/Desktop/anthemLogo.svg.png"
       inkscape:export-xdpi="96"
       inkscape:export-ydpi="96"><path
         d="M 0,0 H -35.009 L -6.744,-20.527 Z"
         style="fill:#f1f1f2;fill-opacity:1;fill-rule:nonzero;stroke:none"
         id="path3734"
         inkscape:connector-curvature="0" /></g><g
       id="g3736"
       transform="translate(132.3477,134.6304)"
       inkscape:export-filename="/Users/josie/Desktop/anthemLogo.svg.png"
       inkscape:export-xdpi="96"
       inkscape:export-ydpi="96"><path
         d="M 0,0 H 35.01 L 6.744,-20.527 Z"
         style="fill:#f1f1f2;fill-opacity:1;fill-rule:nonzero;stroke:none"
         id="path3738"
         inkscape:connector-curvature="0" /></g><g
       aria-label="Anthem"
       transform="matrix(1,0,0,-1,21.6812,44.9575)"
       style="font-variant:normal;font-weight:900;font-stretch:normal;font-size:24.43729973px;font-family:'Verlag Black';-inkscape-font-specification:Verlag-Black;writing-mode:lr-tb;fill:#f1f1f2;fill-opacity:1;fill-rule:nonzero;stroke:none"
       id="text3742"><path
         d="M 8.4308684,-10.727975 6.6469455,-6.4270098 H 10.190354 Z M 12.85402,0 11.509968,-3.2501609 H 5.3273313 L 3.9832799,0 H -0.244373 L 8.1864954,-18.059164 H 8.7485533 L 17.179422,0 Z"
         style=""
         id="path3843" /><path
         d="m 25.243731,0 v -6.4514471 q 0,-0.7819936 -0.293248,-1.0508039 -0.293248,-0.2932476 -0.830868,-0.2932476 -0.562058,0 -1.172991,0.3176849 -0.610932,0.2932476 -1.221865,0.9530547 V 0 h -3.641157 v -10.605788 h 3.543408 v 1.9061093 q 1.050804,-1.0752412 1.979422,-1.5884243 0.953054,-0.513183 1.979421,-0.513183 1.661736,0 2.468167,0.9774915 0.830868,0.977492 0.830868,2.5414792 V 0 Z"
         style=""
         id="path3845" /><path
         d="m 35.727333,-7.746624 v 3.7877814 q 0,0.6842444 0.244373,0.9530547 0.244373,0.2688103 0.659807,0.2688103 0.195498,0 0.415434,-0.048875 0.244373,-0.048875 0.513183,-0.1221865 l 0.830868,2.7125403 Q 37.682317,-0.0244373 36.998072,0.0733119 36.338265,0.1954984 35.654021,0.1954984 34.872027,0.1954984 34.21222,0 33.57685,-0.1954984 33.088104,-0.65980709 32.623796,-1.1485531 32.354985,-1.9794213 32.110612,-2.8102895 32.110612,-4.0565918 V -7.746624 h -2.321543 v -0.5131833 l 2.321543,-2.3459807 v -1.612862 l 3.616721,-2.07717 v 3.690032 h 2.810289 v 2.859164 z"
         style=""
         id="path3847" /><path
         d="m 47.16399,0 v -6.4514471 q 0,-0.7819936 -0.293247,-1.0508039 -0.293248,-0.2932476 -0.830869,-0.2932476 -0.562058,0 -1.17299,0.3176849 -0.610933,0.2932476 -1.221865,0.9530547 V 0 h -3.641158 v -17.912541 h 3.616721 v 9.1395504 q 1.001929,-1.0996785 1.930546,-1.5639874 0.928618,-0.464308 1.954984,-0.464308 1.661737,0 2.468168,0.9774915 0.830868,0.977492 0.830868,2.5414792 V 0 Z"
         style=""
         id="path3849" /><path
         d="m 59.65145,-6.1826368 q -0.09775,-0.9530547 -0.610932,-1.4173634 -0.513183,-0.4643087 -1.27074,-0.4643087 -0.80643,0 -1.319614,0.488746 -0.513183,0.4643087 -0.63537,1.3929261 z m 3.152412,0.488746 q 0,0.244373 -0.02444,0.733119 0,0.4887459 -0.04888,0.7575562 h -6.940193 q 0.171061,0.9041801 0.781994,1.3196142 0.610932,0.3909968 1.881672,0.3909968 0.659807,0 1.515112,-0.1466238 0.855306,-0.1710611 1.710611,-0.4154341 l 0.342123,2.6636657 q -1.026367,0.2688103 -2.052734,0.4154341 -1.026366,0.1710611 -1.881672,0.1710611 -1.563987,0 -2.688103,-0.4398714 -1.099678,-0.43987139 -1.80836,-1.1729904 -0.708682,-0.7575563 -1.050804,-1.7350483 -0.342122,-1.0019293 -0.342122,-2.1016077 0,-1.0508039 0.342122,-2.0527332 0.36656,-1.0019293 1.075241,-1.7594856 0.708682,-0.7819936 1.735049,-1.2463018 1.050804,-0.488746 2.419292,-0.488746 1.246303,0 2.199357,0.415434 0.953055,0.3909964 1.563988,1.0996781 0.635369,0.6842444 0.953054,1.6128618 0.317685,0.9286174 0.317685,1.9794213 z"
         style=""
         id="path3851" /><path
         d="m 77.954988,0 v -6.4758844 q 0,-0.7086817 -0.268811,-1.0263666 -0.26881,-0.3176849 -0.830868,-0.3176849 -0.488746,0 -0.977492,0.2932476 -0.488746,0.2932476 -1.099678,0.977492 V 0 h -3.641158 v -6.4514471 q 0,-1.3440515 -1.099679,-1.3440515 -0.90418,0 -2.07717,1.2707396 V 0 h -3.641158 v -10.605788 h 3.543409 v 1.9061093 q 1.001929,-1.0752412 1.857235,-1.5884243 0.879742,-0.513183 1.906109,-0.513183 1.246302,0 1.930547,0.562057 0.684244,0.537621 1.001929,1.5395503 1.001929,-1.0752412 1.930547,-1.5884243 0.928617,-0.537621 1.954984,-0.537621 1.612861,0 2.370418,0.9774922 0.781993,0.977492 0.781993,2.5170419 V 0 Z"
         style=""
         id="path3853" /></g><g
       aria-label="Engineering"
       transform="matrix(1,0,0,-1,103.52172,44.9575)"
       style="font-variant:normal;font-weight:300;font-stretch:normal;font-size:24.43729973px;font-family:'Verlag Light';-inkscape-font-specification:Verlag-Light;writing-mode:lr-tb;fill:#919396;fill-opacity:1;fill-rule:nonzero;stroke:none"
       id="text3746"><path
         d="M 2.1260451,0 V -17.912541 H 12.243087 v 1.221865 H 3.4945339 v 6.989068 h 7.8932481 v 1.221865 H 3.4945339 v 7.2334407 H 12.243087 V 0 Z"
         style=""
         id="path3856" /><path
         d="m 21.431512,0 v -6.5736336 q 0,-1.2951769 -0.562058,-1.9794213 -0.53762,-0.6842444 -1.783923,-0.6842444 -0.977492,0 -1.906109,0.5864952 -0.928617,0.5864952 -1.637299,1.3684888 V 0 h -1.344051 v -10.214791 h 1.295176 v 1.7594853 q 0.757557,-0.8064309 1.759486,-1.3684888 1.026367,-0.5864955 2.150482,-0.5864955 1.759486,0 2.565917,1.0019296 0.830868,1.0019293 0.830868,2.5414792 V 0 Z"
         style=""
         id="path3858" /><path
         d="m 32.623795,-7.6488748 q -0.562058,-0.6598071 -1.441801,-1.1241158 -0.855306,-0.4643087 -1.881672,-0.4643087 -0.830868,0 -1.515113,0.3176849 -0.684244,0.2932476 -1.197427,0.8553055 -0.488746,0.5620579 -0.781994,1.3196142 -0.26881,0.7575563 -0.26881,1.6861737 0,0.8797427 0.26881,1.637299 0.293248,0.733119 0.781994,1.2951769 0.513183,0.5376206 1.221865,0.8553055 0.708681,0.31768491 1.588424,0.31768491 0.977492,0 1.80836,-0.41543411 0.855306,-0.4398714 1.417364,-1.1485531 z m 1.344051,8.6508041 q 0,2.3215435 -1.099678,3.421222 -1.099679,1.0996784 -3.176849,1.0996784 -0.90418,0 -1.735049,-0.1710611 -0.806431,-0.1466238 -1.661736,-0.4154341 l 0.244373,-1.2463022 q 0.806431,0.3176849 1.53955,0.4398714 0.757556,0.1466238 1.466238,0.1466238 1.612862,0 2.345981,-0.7819936 0.733119,-0.7575563 0.733119,-2.3948554 v -2.2482316 q -0.610933,0.56205791 -1.490676,0.9530547 -0.879743,0.3909968 -1.979421,0.3909968 -1.075241,0 -2.003859,-0.3909968 -0.90418,-0.39099679 -1.563987,-1.0752412 -0.659807,-0.7086817 -1.026366,-1.6617364 -0.36656,-0.977492 -0.36656,-2.126045 0,-1.1241158 0.390997,-2.1016078 0.390997,-0.977492 1.075241,-1.6861737 0.684245,-0.733119 1.588425,-1.1485531 0.928617,-0.4154344 1.954984,-0.4154344 1.099678,0 2.003858,0.4154344 0.90418,0.3909968 1.466238,0.977492 v -1.1974274 h 1.295177 z"
         style=""
         id="path3860" /><path
         d="m 36.264954,0 v -10.214791 h 1.368489 V 0 Z m 1.661736,-14.002573 q 0,0.415434 -0.293247,0.708682 -0.268811,0.26881 -0.684245,0.26881 -0.415434,0 -0.708682,-0.26881 -0.26881,-0.293248 -0.26881,-0.708682 0,-0.415434 0.26881,-0.708681 0.293248,-0.293248 0.708682,-0.293248 0.415434,0 0.684245,0.293248 0.293247,0.293247 0.293247,0.708681 z"
         style=""
         id="path3862" /><path
         d="m 47.163989,0 v -6.5736336 q 0,-1.2951769 -0.562057,-1.9794213 -0.537621,-0.6842444 -1.783923,-0.6842444 -0.977492,0 -1.90611,0.5864952 -0.928617,0.5864952 -1.637299,1.3684888 V 0 h -1.344051 v -10.214791 h 1.295177 v 1.7594853 q 0.757556,-0.8064309 1.759485,-1.3684888 1.026367,-0.5864955 2.150483,-0.5864955 1.759485,0 2.565916,1.0019296 0.830868,1.0019293 0.830868,2.5414792 V 0 Z"
         style=""
         id="path3864" /><path
         d="m 57.891963,-5.8893892 q -0.04887,-0.7086817 -0.26881,-1.3196142 -0.195499,-0.6109325 -0.610933,-1.0508039 -0.390997,-0.4643087 -0.977492,-0.7086817 -0.586495,-0.2688103 -1.368489,-0.2688103 -1.466237,0 -2.34598,0.9286174 -0.855306,0.9041801 -1.026367,2.4192927 z m 1.295177,0.4154341 q 0,0.1710611 0,0.3176849 0,0.1466238 -0.04888,0.3421222 h -7.893247 q 0.04887,0.8064308 0.293247,1.5151125 0.26881,0.6842444 0.781994,1.1974277 0.513183,0.5131833 1.270739,0.8064309 0.781994,0.2932476 1.832798,0.2932476 0.708681,0 1.4418,-0.1710611 0.757557,-0.1710611 1.466238,-0.4398714 l 0.146624,0.5864952 q 0.04887,0.12218651 0.04887,0.21993571 0.02444,0.0977492 0.04887,0.1710611 0.02444,0.0977492 0.02444,0.1710611 Q 57.818651,-0.1710611 56.963346,0 56.10804,0.1954984 55.350484,0.1954984 q -1.344052,0 -2.370418,-0.3909968 -1.026367,-0.41543409 -1.710611,-1.1241158 -0.684245,-0.733119 -1.026367,-1.6861737 -0.342122,-0.977492 -0.342122,-2.0771704 0,-1.0752412 0.317685,-2.0282959 0.342122,-0.977492 0.977492,-1.710611 0.63537,-0.733119 1.53955,-1.1485531 0.90418,-0.4398717 2.028296,-0.4398717 1.075241,0 1.906109,0.390997 0.830868,0.3665596 1.392926,1.0263667 0.562058,0.6598071 0.830868,1.5639872 0.293248,0.9041801 0.293248,1.954984 z"
         style=""
         id="path3866" /><path
         d="m 68.546626,-5.8893892 q -0.04887,-0.7086817 -0.26881,-1.3196142 -0.195499,-0.6109325 -0.610933,-1.0508039 -0.390996,-0.4643087 -0.977492,-0.7086817 -0.586495,-0.2688103 -1.368488,-0.2688103 -1.466238,0 -2.345981,0.9286174 -0.855306,0.9041801 -1.026367,2.4192927 z m 1.295177,0.4154341 q 0,0.1710611 0,0.3176849 0,0.1466238 -0.04887,0.3421222 h -7.893247 q 0.04887,0.8064308 0.293247,1.5151125 0.268811,0.6842444 0.781994,1.1974277 0.513183,0.5131833 1.270739,0.8064309 0.781994,0.2932476 1.832798,0.2932476 0.708682,0 1.441801,-0.1710611 0.757556,-0.1710611 1.466238,-0.4398714 l 0.146623,0.5864952 q 0.04887,0.12218651 0.04887,0.21993571 0.02444,0.0977492 0.04887,0.1710611 0.02444,0.0977492 0.02444,0.1710611 Q 68.473314,-0.1710611 67.618009,0 q -0.855306,0.1954984 -1.612862,0.1954984 -1.344052,0 -2.370418,-0.3909968 -1.026367,-0.41543409 -1.710611,-1.1241158 -0.684244,-0.733119 -1.026367,-1.6861737 -0.342122,-0.977492 -0.342122,-2.0771704 0,-1.0752412 0.317685,-2.0282959 0.342122,-0.977492 0.977492,-1.710611 0.63537,-0.733119 1.53955,-1.1485531 0.90418,-0.4398717 2.028296,-0.4398717 1.075241,0 1.906109,0.390997 0.830868,0.3665596 1.392926,1.0263667 0.562058,0.6598071 0.830868,1.5639872 0.293248,0.9041801 0.293248,1.954984 z"
         style=""
         id="path3868" /><path
         d="m 76.488749,-9.1151128 q -1.099679,0.048875 -2.101608,0.5864952 -0.977492,0.5131833 -1.563987,1.5395499 V 0 h -1.344052 v -10.214791 h 1.295177 v 1.9305464 q 0.708682,-1.0019293 1.661736,-1.5639872 0.953055,-0.5864952 2.052734,-0.5864952 z"
         style=""
         id="path3870" /><path
         d="m 78.028298,0 v -10.214791 h 1.368488 V 0 Z m 1.661736,-14.002573 q 0,0.415434 -0.293248,0.708682 -0.26881,0.26881 -0.684244,0.26881 -0.415434,0 -0.708682,-0.26881 -0.26881,-0.293248 -0.26881,-0.708682 0,-0.415434 0.26881,-0.708681 0.293248,-0.293248 0.708682,-0.293248 0.415434,0 0.684244,0.293248 0.293248,0.293247 0.293248,0.708681 z"
         style=""
         id="path3872" /><path
         d="m 88.927333,0 v -6.5736336 q 0,-1.2951769 -0.562058,-1.9794213 -0.53762,-0.6842444 -1.783923,-0.6842444 -0.977492,0 -1.906109,0.5864952 -0.928617,0.5864952 -1.637299,1.3684888 V 0 h -1.344051 v -10.214791 h 1.295176 v 1.7594853 q 0.757557,-0.8064309 1.759486,-1.3684888 1.026367,-0.5864955 2.150482,-0.5864955 1.759486,0 2.565917,1.0019296 0.830868,1.0019293 0.830868,2.5414792 V 0 Z"
         style=""
         id="path3874" /><path
         d="m 100.11962,-7.6488748 q -0.562059,-0.6598071 -1.441801,-1.1241158 -0.855306,-0.4643087 -1.881672,-0.4643087 -0.830869,0 -1.515113,0.3176849 -0.684244,0.2932476 -1.197428,0.8553055 -0.488746,0.5620579 -0.781993,1.3196142 -0.268811,0.7575563 -0.268811,1.6861737 0,0.8797427 0.268811,1.637299 0.293247,0.733119 0.781993,1.2951769 0.513184,0.5376206 1.221865,0.8553055 0.708682,0.31768491 1.588425,0.31768491 0.977492,0 1.80836,-0.41543411 0.855305,-0.4398714 1.417364,-1.1485531 z m 1.34405,8.6508041 q 0,2.3215435 -1.09968,3.421222 -1.099676,1.0996784 -3.176847,1.0996784 -0.90418,0 -1.735048,-0.1710611 -0.806431,-0.1466238 -1.661736,-0.4154341 l 0.244373,-1.2463022 q 0.806431,0.3176849 1.53955,0.4398714 0.757556,0.1466238 1.466238,0.1466238 1.612861,0 2.34598,-0.7819936 0.73312,-0.7575563 0.73312,-2.3948554 v -2.2482316 q -0.610933,0.56205791 -1.490676,0.9530547 -0.879743,0.3909968 -1.979421,0.3909968 -1.075241,0 -2.003859,-0.3909968 -0.90418,-0.39099679 -1.563987,-1.0752412 -0.659807,-0.7086817 -1.026367,-1.6617364 -0.366559,-0.977492 -0.366559,-2.126045 0,-1.1241158 0.390997,-2.1016078 0.390997,-0.977492 1.075241,-1.6861737 0.684244,-0.733119 1.588424,-1.1485531 0.928618,-0.4154344 1.954984,-0.4154344 1.099679,0 2.003859,0.4154344 0.90418,0.3909968 1.466234,0.977492 v -1.1974274 h 1.29518 z"
         style=""
         id="path3876" /></g></g></svg>