<?xml version="1.0" encoding="utf-8"?>
<!-- Generator: Adobe Illustrator 17.0.2, SVG Export Plug-In . SVG Version: 6.00 Build 0)  -->
<!DOCTYPE svg PUBLIC "-//W3C//DTD SVG 1.1//EN" "http://www.w3.org/Graphics/SVG/1.1/DTD/svg11.dtd">
<svg version="1.1" id="Layer_1" xmlns="http://www.w3.org/2000/svg" xmlns:xlink="http://www.w3.org/1999/xlink" x="0px" y="0px"
	 width="126.86px" height="24px" viewBox="0 0 126.86 24" style="enable-background:new 0 0 126.86 24;" xml:space="preserve">
<g style="opacity:0.5;">
	<path style="fill:#414141;" d="M108.98,17.05l4.45,3.55l-0.69-2.17L107.8,3.41l-4.93,15.01l-0.69,2.17l4.74-3.58"/>
	<g>
		<path d="M13.43,17.86V9.58h4.36c1.58,0,2.38,1.01,2.38,2.11c0,1.04-0.65,1.74-1.43,1.9c0.88,0.14,1.59,0.99,1.59,2.04
			c0,1.24-0.83,2.23-2.41,2.23H13.43z M18.37,12c0-0.52-0.37-0.91-0.97-0.91h-2.21v1.8h2.21C18,12.89,18.37,12.52,18.37,12z
			 M18.53,15.38c0-0.52-0.37-0.97-1.07-0.97h-2.27v1.92h2.27C18.13,16.33,18.53,15.97,18.53,15.38z"/>
		<path d="M27.37,17.86l-0.51-1.4h-3.55l-0.52,1.4h-2.01l3.2-8.28h2.21l3.19,8.28H27.37z M25.08,11.34l-1.29,3.56h2.58L25.08,11.34z
			"/>
		<path d="M29.32,13.73c0-2.55,1.92-4.28,4.41-4.28c1.82,0,2.88,0.99,3.46,2.02l-1.51,0.74c-0.35-0.67-1.09-1.2-1.95-1.2
			c-1.5,0-2.59,1.15-2.59,2.72c0,1.56,1.09,2.72,2.59,2.72c0.86,0,1.6-0.52,1.95-1.2l1.51,0.73c-0.6,1.03-1.64,2.04-3.46,2.04
			C31.25,18.01,29.32,16.27,29.32,13.73z"/>
		<path d="M43.16,17.86l-2.51-3.31l-0.65,0.77v2.54h-1.76V9.58h1.76v3.7l2.93-3.7h2.17l-3.29,3.89l3.51,4.39H43.16z"/>
		<path d="M51.23,17.86v-6.73h-2.42V9.58h6.6v1.55H53v6.73H51.23z"/>
		<path d="M55.84,13.73c0-2.5,1.82-4.28,4.32-4.28c2.51,0,4.33,1.79,4.33,4.28c0,2.49-1.82,4.28-4.33,4.28
			C57.67,18.01,55.84,16.22,55.84,13.73z M62.68,13.73c0-1.55-0.99-2.72-2.52-2.72c-1.53,0-2.51,1.17-2.51,2.72
			c0,1.54,0.98,2.72,2.51,2.72C61.69,16.44,62.68,15.27,62.68,13.73z"/>
		<path d="M70.82,17.86v-6.73H68.4V9.58H75v1.55H72.6v6.73H70.82z"/>
		<path d="M75.44,13.73c0-2.5,1.82-4.28,4.32-4.28c2.51,0,4.33,1.79,4.33,4.28c0,2.49-1.82,4.28-4.33,4.28
			C77.26,18.01,75.44,16.22,75.44,13.73z M82.28,13.73c0-1.55-0.99-2.72-2.52-2.72c-1.53,0-2.51,1.17-2.51,2.72
			c0,1.54,0.98,2.72,2.51,2.72C81.28,16.44,82.28,15.27,82.28,13.73z"/>
		<path d="M85.33,17.86V9.58h3.87c1.8,0,2.78,1.22,2.78,2.67c0,1.44-0.99,2.67-2.78,2.67h-2.11v2.94H85.33z M90.18,12.25
			c0-0.69-0.52-1.12-1.22-1.12h-1.87v2.23h1.87C89.66,13.37,90.18,12.93,90.18,12.25z"/>
	</g>
</g>
</svg>
