<?xml version="1.0" encoding="utf-8"?>
<!-- Generator: Adobe Illustrator 17.0.2, SVG Export Plug-In . SVG Version: 6.00 Build 0)  -->
<!DOCTYPE svg PUBLIC "-//W3C//DTD SVG 1.1//EN" "http://www.w3.org/Graphics/SVG/1.1/DTD/svg11.dtd">
<svg version="1.1" id="Layer_1" xmlns="http://www.w3.org/2000/svg" xmlns:xlink="http://www.w3.org/1999/xlink" x="0px" y="0px"
	 width="224px" height="204px" viewBox="0 0 224 204" style="enable-background:new 0 0 224 204;" xml:space="preserve">
<rect style="display:none;fill:#16192A;" width="224" height="204"/>
<image style="display:none;overflow:visible;" width="446" height="406" xlink:href="../bigData_guide.jpg"  transform="matrix(0.5022 0 0 0.5025 0 0)">
</image>
<g style="display:none;">
	<path style="display:inline;fill:#5D8C81;" d="M141.18,0h-37.5v7.92h-8v7.92h-8v51h37.5v-7.92h8V51h8V0z M103.68,18.33
		 M122.68,64.33h-32.5v-46h32.5V64.33z M130.68,10.42v46h-5.5V15.83h-27v-5.42H130.68z M138.68,48.5h-5.5V7.92h-27V2.5h32.5V48.5z"
		/>
	<g style="display:inline;">
		<rect x="95.68" y="24.08" style="fill:#5D8C81;" width="21.33" height="2.5"/>
		<rect x="95.68" y="56.42" style="fill:#5D8C81;" width="21.33" height="2.5"/>
		<rect x="95.68" y="48.33" style="fill:#5D8C81;" width="21.33" height="2.5"/>
		<rect x="95.68" y="40.25" style="fill:#5D8C81;" width="21.33" height="2.5"/>
		<rect x="95.68" y="32.17" style="fill:#5D8C81;" width="21.33" height="2.5"/>
	</g>
</g>
<g>
	<g>
		<rect x="93.91" y="168.17" style="fill:#2A9E6A;" width="9" height="8.84"/>
		<rect x="106.91" y="168.17" style="fill:#E0EDC2;" width="22" height="8.84"/>
	</g>
	<g>
		<rect x="93.91" y="181.17" style="fill:#2A9E6A;" width="9" height="8.84"/>
		<rect x="106.91" y="181.17" style="fill:#E0EDC2;" width="22" height="8.84"/>
	</g>
	<g>
		<rect x="93.91" y="194.16" style="fill:#2A9E6A;" width="9" height="8.84"/>
		<rect x="106.91" y="194.16" style="fill:#E0EDC2;" width="22" height="8.84"/>
	</g>
</g>
<g style="display:none;">
	<g style="display:inline;">
		<rect x="30.91" y="168.17" style="fill:#E0EDC2;" width="35" height="8.84"/>
	</g>
	<g style="display:inline;">
		<rect x="30.91" y="181.17" style="fill:#E0EDC2;" width="35" height="8.84"/>
	</g>
	<g style="display:inline;">
		<rect x="30.91" y="194.16" style="fill:#E0EDC2;" width="35" height="8.84"/>
	</g>
</g>
<g style="display:none;">
	<g style="display:inline;">
		<rect x="156.95" y="168.17" style="fill:#2A9E6A;" width="9" height="8.84"/>
		<rect x="182.95" y="168.17" style="fill:#2A9E6A;" width="9" height="8.84"/>
		<rect x="169.95" y="168.17" style="fill:#2A9E6A;" width="9" height="8.84"/>
	</g>
	<g style="display:inline;">
		<rect x="156.95" y="194.16" style="fill:#2A9E6A;" width="9" height="8.84"/>
		<rect x="182.95" y="194.16" style="fill:#2A9E6A;" width="9" height="8.84"/>
		<rect x="169.95" y="194.16" style="fill:#2A9E6A;" width="9" height="8.84"/>
	</g>
	<g style="display:inline;">
		<rect x="156.95" y="181.17" style="fill:#2A9E6A;" width="9" height="8.84"/>
		<rect x="182.95" y="181.17" style="fill:#2A9E6A;" width="9" height="8.84"/>
		<rect x="169.95" y="181.17" style="fill:#2A9E6A;" width="9" height="8.84"/>
	</g>
</g>
<g style="display:none;">
	<g style="display:inline;">
		<path style="fill:#04061A;" d="M130.16,77.33V96.5h-37.5V77.33H130.16 M134.16,73.33h-45.5v27.17h45.5V73.33L134.16,73.33z"/>
	</g>
	<g style="display:inline;">
		<path style="fill:#04061A;" d="M120.16,145.67V157h-17.5v-11.33H120.16 M124.16,141.67h-25.5V161h25.5V141.67L124.16,141.67z"/>
	</g>
	<g style="display:inline;">
		<path style="fill:#04061A;" d="M57.16,145.67V157h-17.5v-11.33H57.16 M61.16,141.67h-25.5V161h25.5V141.67L61.16,141.67z"/>
	</g>
	<g style="display:inline;">
		<path style="fill:#04061A;" d="M183.2,145.67V157h-17.5v-11.33H183.2 M187.2,141.67h-25.5V161h25.5V141.67L187.2,141.67z"/>
	</g>
	<polygon style="display:inline;fill:#04061A;" points="113.37,118.83 113.37,96.83 109.37,96.83 109.37,118.83 46.39,118.83 
		46.39,120.42 46.39,122.83 46.39,142.5 50.39,142.5 50.39,122.83 109.37,122.83 109.37,144 113.37,144 113.37,122.83 
		172.42,122.83 172.42,142.5 176.42,142.5 176.42,122.83 176.42,120.42 176.42,118.83 	"/>
</g>
</svg>
