<?xml version="1.0" encoding="utf-8"?>
<!-- Generator: Adobe Illustrator 17.0.2, SVG Export Plug-In . SVG Version: 6.00 Build 0)  -->
<!DOCTYPE svg PUBLIC "-//W3C//DTD SVG 1.1//EN" "http://www.w3.org/Graphics/SVG/1.1/DTD/svg11.dtd">
<svg version="1.1" id="Layer_1" xmlns="http://www.w3.org/2000/svg" xmlns:xlink="http://www.w3.org/1999/xlink" x="0px" y="0px"
	 width="224px" height="160px" viewBox="0 0 224 160" style="enable-background:new 0 0 224 160;" xml:space="preserve">
<image style="display:none;overflow:visible;" width="446" height="322" xlink:href="../cloud_guide.jpg"  transform="matrix(0.4969 0 0 0.4969 1.1925 0)">
</image>
<path style="fill-rule:evenodd;clip-rule:evenodd;fill:#FFFFFF;" d="M81.26,106.92C76.14,95.2,64.44,87,50.82,87
	c-18.34,0-33.21,14.86-33.21,33.18c0,0.09,0.01,0.19,0.01,0.28C8.19,122.04,1,130.22,1,140.09c0,11,8.92,19.91,19.93,19.91h63.1
	v-0.21c13.1-1.63,23.25-12.8,23.25-26.33C107.27,118.98,95.68,107.22,81.26,106.92z M54.14,150.05l-16.6-16.59h9.96v-23.23h13.28
	v23.23h9.96L54.14,150.05z"/>
</svg>
