<?xml version="1.0" encoding="utf-8"?>
<!-- Generator: Adobe Illustrator 17.0.2, SVG Export Plug-In . SVG Version: 6.00 Build 0)  -->
<!DOCTYPE svg PUBLIC "-//W3C//DTD SVG 1.1//EN" "http://www.w3.org/Graphics/SVG/1.1/DTD/svg11.dtd">
<svg version="1.1" id="Layer_1" xmlns="http://www.w3.org/2000/svg" xmlns:xlink="http://www.w3.org/1999/xlink" x="0px" y="0px"
	 width="224px" height="204px" viewBox="0 0 224 204" style="enable-background:new 0 0 224 204;" xml:space="preserve">
<image style="display:none;overflow:visible;enable-background:new    ;" width="446" height="406" xlink:href="../knowledgeManagement_guide.jpg"  transform="matrix(0.5 0 0 0.5 0.5 0)">
</image>
<rect style="display:none;fill:#16192A;" width="224" height="204"/>
<g style="display:none;">
	<path style="display:inline;fill:#2A9E6A;" d="M78.05,88.42c0,0-0.11-10.83-0.77-11.95c-0.98-1.67-3.28-2.82-7.53-4.6
		c-4.24-1.77-5.6-3.27-5.6-6.47c0-1.92,1.29-1.29,1.86-4.82c0.24-1.46,1.38-0.02,1.6-3.36c0-1.33-0.62-1.66-0.62-1.66
		s0.32-1.97,0.44-3.48c0.15-1.89-0.95-6.76-6.84-6.76s-6.99,4.87-6.84,6.76c0.12,1.51,0.44,3.48,0.44,3.48s-0.62,0.33-0.62,1.66
		c0.22,3.33,1.36,1.9,1.6,3.36c0.57,3.52,1.86,2.89,1.86,4.82c0,2.18-0.63,3.57-2.37,4.79c9.27,4.64,10.51,5.58,10.51,9.73v8.5
		H78.05z M50.09,73.48c-5.66-2.36-7.46-4.36-7.46-8.63c0-2.56,1.73-1.73,2.49-6.42c0.31-1.95,1.84-0.03,2.13-4.48
		c0-1.77-0.83-2.21-0.83-2.21s0.42-2.62,0.59-4.64c0.21-2.51-1.27-9.01-9.12-9.01s-9.32,6.5-9.12,9.01
		c0.17,2.02,0.59,4.64,0.59,4.64s-0.83,0.44-0.83,2.21c0.29,4.45,1.82,2.53,2.13,4.48c0.76,4.69,2.49,3.86,2.49,6.42
		c0,4.27-1.81,6.26-7.46,8.63c-1.72,0.72-4.82,1.84-4.82,4.52v10.42H60.6c0,0,0-6.16,0-7.81C60.59,78.16,55.76,75.85,50.09,73.48z"
		/>
</g>
<path style="display:none;fill:#5D8C81;" d="M199.36,73.11c-2.83,4.58-11.87,7.93-22.58,7.93s-19.75-3.35-22.58-7.93
	c-0.6-0.97-0.92-0.45-0.92,0.03c0,0.48,0,6.72,0,6.72c0,6.51,10.52,13.26,23.5,13.26s23.5-6.75,23.5-13.26c0,0,0-6.24,0-6.72
	C200.28,72.65,199.96,72.14,199.36,73.11z M199.4,55.93c-2.79,4.05-11.86,7.02-22.62,7.02s-19.83-2.97-22.62-7.02
	c-0.57-0.83-0.88-0.38-0.88,0s0,7.91,0,7.91c0,5.92,10.52,10.71,23.5,10.71s23.5-4.8,23.5-10.71c0,0,0-7.53,0-7.91
	C200.28,55.55,199.97,55.1,199.4,55.93z M176.78,34.03c-12.98,0-23.5,3.96-23.5,8.84v4.23c0,5.18,10.52,9.37,23.5,9.37
	s23.5-4.2,23.5-9.37v-4.23C200.28,37.99,189.76,34.03,176.78,34.03z"/>
<g style="display:none;">
	<path style="display:inline;fill:#04061A;" d="M58.92,22.84l-6.46-6.46c0.97-1.6,1.53-3.48,1.53-5.49C54,5.06,48.94,0,43.1,0
		S32.53,4.73,32.53,10.57s5.06,10.9,10.9,10.9c1.94,0,3.76-0.53,5.32-1.44l6.49,6.49c0.64,0.64,1.67,0.64,2.3,0l1.61-1.61
		C59.78,24.28,59.55,23.48,58.92,22.84z M35.78,10.57c0-4.04,3.28-7.32,7.32-7.32s7.65,3.6,7.65,7.64s-3.28,7.32-7.32,7.32
		C39.38,18.22,35.78,14.61,35.78,10.57z"/>
</g>
<g>
	<path style="fill:#242F38;" d="M61.53,104h-28c-1.92,0-3.5,1.57-3.5,3.5v21c0,1.93,1.57,3.5,3.5,3.5h28c1.93,0,3.5-1.57,3.5-3.5
		v-21C65.03,105.57,63.45,104,61.53,104z M61.53,128.5h-28v-21h28V128.5z M45.78,121.67h-8.75v3.15h8.75V121.67z M45.78,116.42
		h-8.75v3.15h8.75V116.42z M45.78,111.17h-8.75v3.15h8.75V111.17z M57.85,122.38c0,0-2.97-0.78-2.97-2.31
		c0-1.46,1.92-2.07,1.92-5.04c0-2.42-0.73-3.85-3.15-3.85c-2.42,0-3.15,1.43-3.15,3.85c0,2.98,1.92,3.59,1.92,5.04
		c0,1.53-2.97,2.31-2.97,2.31c-0.18,0-0.18,2.45-0.18,2.45h8.75C58.03,124.82,58.03,122.38,57.85,122.38z"/>
</g>
<path style="display:none;fill:#E0EDC2;" d="M126.06,48.78h-28.5v-5.7l-11.4,9.69l11.4,9.12v-5.13h28.5V48.78z M143.16,72.72
	l-11.4-9.69v5.7h-28.5v7.98h28.5v5.13L143.16,72.72z"/>
</svg>
