<?xml version="1.0" encoding="utf-8"?>
<!-- Generator: Adobe Illustrator 17.0.2, SVG Export Plug-In . SVG Version: 6.00 Build 0)  -->
<!DOCTYPE svg PUBLIC "-//W3C//DTD SVG 1.1//EN" "http://www.w3.org/Graphics/SVG/1.1/DTD/svg11.dtd">
<svg version="1.1" id="Layer_1" xmlns="http://www.w3.org/2000/svg" xmlns:xlink="http://www.w3.org/1999/xlink" x="0px" y="0px"
	 width="42px" height="40px" viewBox="0 0 42 40" style="enable-background:new 0 0 42 40;" xml:space="preserve">
<path style="fill-rule:evenodd;clip-rule:evenodd;fill:#FFFFFF;" d="M32.33,39.99V26.25c0-3.45-0.7-5.81-3.94-5.81
	c-2.47,0-4.54,1.6-5.19,3.13c-0.24,0.55-0.29,1.31-0.29,2.08v14.35h-9.54c0,0,0.12-24.24,0-26.65h9.54v4.59
	c-0.02,0.03-0.04,0.06-0.06,0.08h0.06v-0.08c1.19-1.75,3.91-4.6,8.66-4.6c5.89,0,10.31,4.03,10.31,11.92v14.73H32.33L32.33,39.99z
	 M0.12,13.33h9.49V40H0.12V13.33L0.12,13.33z M4.87,9.52c-2.62,0-4.74-2.13-4.74-4.76C0.12,2.13,2.25,0,4.87,0
	c2.62,0,4.75,2.13,4.75,4.76C9.61,7.39,7.49,9.52,4.87,9.52L4.87,9.52z"/>
</svg>
