<?xml version="1.0" encoding="utf-8"?>
<!-- Generator: Adobe Illustrator 17.0.2, SVG Export Plug-In . SVG Version: 6.00 Build 0)  -->
<!DOCTYPE svg PUBLIC "-//W3C//DTD SVG 1.1//EN" "http://www.w3.org/Graphics/SVG/1.1/DTD/svg11.dtd">
<svg version="1.1" id="Layer_1" xmlns="http://www.w3.org/2000/svg" xmlns:xlink="http://www.w3.org/1999/xlink" x="0px" y="0px"
	 width="175px" height="35px" viewBox="0 0 175 35" style="enable-background:new 0 0 175 35;" xml:space="preserve">
<g>
	<g>
		<path style="fill:#FFFFFF;" d="M17.06,1.27L7.94,29.02l-1.28,4.02l5.18-4.02l1.6-5.1h7.15l1.59,5.1l5.28,4.02l-1.28-4.02
			L17.06,1.27z M14.47,20.63l2.56-8.84l2.52,8.84H14.47z"/>
		<polygon style="fill:#FFFFFF;" points="11.36,13.32 0.5,13.32 9.27,19.69 		"/>
		<polygon style="fill:#FFFFFF;" points="22.69,13.32 33.55,13.32 24.78,19.69 		"/>
	</g>
	<g>
		<path style="fill:#FFFFFF;" d="M43.61,29.3l-1.03-2.5h-4.75l-1.03,2.5h-3.25l6.47-13.87h0.43l6.47,13.87H43.61z M40.21,21.06
			l-1.37,3.3h2.72L40.21,21.06z"/>
		<path style="fill:#FFFFFF;" d="M53.13,29.3v-4.95c0-0.4-0.08-0.67-0.23-0.82c-0.15-0.14-0.36-0.22-0.64-0.22
			c-0.29,0-0.59,0.08-0.9,0.23c-0.31,0.16-0.63,0.4-0.94,0.74v5.01h-2.8v-8.14h2.72v1.46c0.54-0.55,1.05-0.96,1.53-1.22
			c0.48-0.26,0.99-0.39,1.51-0.39c0.85,0,1.49,0.25,1.9,0.75c0.42,0.5,0.63,1.15,0.63,1.95v5.59H53.13z"/>
		<path style="fill:#FFFFFF;" d="M61.18,23.35v2.91c0,0.35,0.06,0.59,0.19,0.73c0.12,0.14,0.29,0.21,0.51,0.21
			c0.1,0,0.21-0.01,0.33-0.04c0.12-0.02,0.25-0.06,0.38-0.09l0.64,2.08c-0.36,0.09-0.72,0.16-1.06,0.22
			c-0.34,0.06-0.69,0.08-1.04,0.08c-0.4,0-0.77-0.05-1.1-0.15c-0.33-0.1-0.62-0.27-0.86-0.52c-0.24-0.24-0.43-0.58-0.56-1
			c-0.13-0.42-0.2-0.96-0.2-1.59v-2.83h-1.78v-0.39l1.78-1.8v-1.24l2.78-1.6v2.83h2.16v2.2H61.18z"/>
		<path style="fill:#FFFFFF;" d="M69.96,29.3v-4.95c0-0.4-0.08-0.67-0.23-0.82c-0.15-0.14-0.36-0.22-0.64-0.22
			c-0.29,0-0.59,0.08-0.9,0.23c-0.31,0.16-0.63,0.4-0.94,0.74v5.01h-2.8V15.55h2.78v7.02c0.51-0.56,1.01-0.96,1.48-1.2
			c0.48-0.24,0.98-0.36,1.5-0.36c0.85,0,1.49,0.25,1.9,0.75c0.42,0.5,0.63,1.15,0.63,1.95v5.59H69.96z"/>
		<path style="fill:#FFFFFF;" d="M81.97,24.93c0,0.13,0,0.31-0.01,0.56c-0.01,0.25-0.02,0.44-0.05,0.58h-5.33
			c0.09,0.46,0.29,0.8,0.6,1c0.31,0.21,0.79,0.31,1.45,0.31c0.34,0,0.73-0.04,1.16-0.12c0.44-0.08,0.88-0.18,1.31-0.31L81.37,29
			c-0.53,0.14-1.05,0.25-1.58,0.33c-0.53,0.08-1.01,0.12-1.45,0.12c-0.8,0-1.49-0.11-2.05-0.34c-0.57-0.23-1.04-0.53-1.4-0.91
			c-0.36-0.38-0.63-0.83-0.81-1.33c-0.18-0.51-0.26-1.04-0.26-1.6c0-0.54,0.09-1.06,0.27-1.58c0.18-0.51,0.45-0.97,0.82-1.36
			c0.36-0.39,0.81-0.71,1.34-0.96c0.53-0.24,1.15-0.37,1.85-0.37c0.64,0,1.2,0.1,1.69,0.31c0.49,0.21,0.89,0.49,1.21,0.84
			c0.32,0.36,0.56,0.77,0.72,1.25C81.89,23.89,81.97,24.39,81.97,24.93z M79.55,24.55c-0.05-0.49-0.21-0.85-0.47-1.09
			c-0.26-0.24-0.59-0.36-0.98-0.36c-0.41,0-0.75,0.12-1.01,0.37c-0.26,0.24-0.43,0.6-0.49,1.08H79.55z"/>
		<path style="fill:#FFFFFF;" d="M93.6,29.3v-4.97c0-0.36-0.07-0.63-0.21-0.79c-0.14-0.16-0.35-0.24-0.64-0.24
			c-0.25,0-0.5,0.07-0.75,0.22c-0.25,0.15-0.53,0.4-0.84,0.75v5.03h-2.8v-4.95c0-0.69-0.28-1.03-0.84-1.03
			c-0.46,0-0.99,0.33-1.6,0.98v5.01h-2.8v-8.14h2.72v1.46c0.51-0.55,0.99-0.96,1.44-1.22c0.44-0.26,0.93-0.39,1.45-0.39
			c0.64,0,1.13,0.14,1.48,0.42c0.35,0.28,0.61,0.68,0.77,1.19c0.51-0.55,1.01-0.96,1.48-1.23c0.48-0.27,0.98-0.4,1.5-0.4
			c0.83,0,1.44,0.25,1.83,0.75c0.39,0.5,0.59,1.15,0.59,1.93v5.63H93.6z"/>
		<path style="fill:#FFFFFF;" d="M98.22,29.3V15.55h7.77v0.94h-6.72v5.37h6.06v0.94h-6.06v5.56h6.72v0.96H98.22z"/>
		<path style="fill:#FFFFFF;" d="M113.04,29.3v-5.05c0-0.66-0.14-1.17-0.42-1.52c-0.28-0.35-0.74-0.53-1.38-0.53
			c-0.5,0-0.99,0.15-1.46,0.45c-0.48,0.3-0.89,0.65-1.26,1.05v5.59h-1.03v-7.84h0.99v1.35c0.39-0.41,0.84-0.77,1.36-1.06
			c0.52-0.29,1.07-0.44,1.64-0.44c0.9,0,1.56,0.26,1.98,0.77c0.42,0.51,0.63,1.16,0.63,1.95v5.27H113.04z"/>
		<path style="fill:#FFFFFF;" d="M122.67,30.07c0,1.19-0.28,2.06-0.84,2.63c-0.56,0.56-1.38,0.84-2.44,0.84
			c-0.46,0-0.9-0.04-1.32-0.12c-0.42-0.08-0.85-0.19-1.29-0.33l0.19-0.96c0.41,0.16,0.81,0.28,1.19,0.35
			c0.38,0.07,0.75,0.1,1.12,0.1c0.83,0,1.43-0.2,1.8-0.59c0.38-0.39,0.56-1.01,0.56-1.85v-1.73c-0.31,0.29-0.69,0.53-1.14,0.73
			c-0.45,0.2-0.96,0.3-1.52,0.3c-0.55,0-1.06-0.1-1.53-0.3c-0.47-0.2-0.87-0.48-1.21-0.84c-0.34-0.36-0.6-0.78-0.79-1.28
			c-0.19-0.49-0.28-1.03-0.28-1.62c0-0.58,0.1-1.11,0.3-1.61c0.2-0.5,0.48-0.94,0.83-1.3c0.35-0.37,0.76-0.66,1.23-0.87
			c0.47-0.21,0.97-0.32,1.49-0.32c0.56,0,1.08,0.1,1.54,0.31c0.46,0.21,0.84,0.46,1.13,0.76v-0.92h0.99V30.07z M121.64,23.43
			c-0.29-0.34-0.65-0.63-1.1-0.86c-0.44-0.24-0.93-0.36-1.45-0.36c-0.43,0-0.81,0.08-1.16,0.24c-0.35,0.16-0.65,0.38-0.91,0.67
			c-0.26,0.29-0.46,0.63-0.6,1.01c-0.14,0.39-0.22,0.82-0.22,1.3c0,0.45,0.07,0.87,0.22,1.25c0.14,0.38,0.34,0.71,0.6,0.99
			c0.26,0.28,0.57,0.5,0.93,0.67c0.36,0.16,0.77,0.24,1.22,0.24c0.5,0,0.97-0.11,1.4-0.33c0.43-0.22,0.79-0.51,1.08-0.87V23.43z"/>
		<path style="fill:#FFFFFF;" d="M125.71,18.55c0,0.21-0.07,0.39-0.22,0.53c-0.14,0.14-0.32,0.22-0.54,0.22
			c-0.21,0-0.39-0.07-0.53-0.22c-0.14-0.14-0.22-0.32-0.22-0.53c0-0.21,0.07-0.39,0.22-0.54c0.14-0.15,0.32-0.22,0.53-0.22
			c0.21,0,0.39,0.08,0.54,0.22C125.64,18.16,125.71,18.34,125.71,18.55z M124.43,29.3v-7.84h1.05v7.84H124.43z"/>
		<path style="fill:#FFFFFF;" d="M132.8,29.3v-5.05c0-0.66-0.14-1.17-0.42-1.52c-0.28-0.35-0.74-0.53-1.38-0.53
			c-0.5,0-0.99,0.15-1.46,0.45c-0.48,0.3-0.9,0.65-1.26,1.05v5.59h-1.03v-7.84h1v1.35c0.39-0.41,0.84-0.77,1.36-1.06
			c0.52-0.29,1.07-0.44,1.64-0.44c0.9,0,1.56,0.26,1.98,0.77c0.42,0.51,0.63,1.16,0.63,1.95v5.27H132.8z"/>
		<path style="fill:#FFFFFF;" d="M142.04,25.1c0,0.09,0,0.17,0,0.24c0,0.08-0.01,0.16-0.04,0.26h-6.06c0.03,0.41,0.1,0.8,0.23,1.15
			c0.13,0.36,0.33,0.67,0.59,0.93c0.26,0.26,0.59,0.47,0.98,0.62c0.39,0.15,0.86,0.23,1.4,0.23c0.36,0,0.73-0.04,1.12-0.13
			c0.38-0.09,0.75-0.2,1.12-0.34l0.11,0.45c0.02,0.06,0.04,0.12,0.05,0.17c0.01,0.05,0.02,0.09,0.03,0.13
			c0.01,0.05,0.02,0.09,0.02,0.13c-0.4,0.15-0.82,0.27-1.26,0.37c-0.44,0.09-0.85,0.14-1.24,0.14c-0.69,0-1.29-0.1-1.82-0.31
			c-0.53-0.21-0.96-0.49-1.31-0.86c-0.35-0.37-0.61-0.8-0.79-1.3c-0.18-0.49-0.26-1.02-0.26-1.59c0-0.55,0.08-1.07,0.25-1.57
			c0.17-0.49,0.42-0.93,0.74-1.3c0.33-0.37,0.72-0.67,1.18-0.89c0.46-0.22,0.98-0.33,1.56-0.33c0.55,0,1.04,0.1,1.46,0.29
			c0.42,0.19,0.78,0.46,1.07,0.8c0.29,0.34,0.5,0.74,0.65,1.2C141.96,24.06,142.04,24.56,142.04,25.1z M141.04,24.78
			c-0.03-0.36-0.09-0.7-0.2-1.01c-0.11-0.31-0.26-0.58-0.47-0.82c-0.21-0.23-0.46-0.41-0.76-0.54c-0.3-0.13-0.65-0.2-1.05-0.2
			c-0.75,0-1.35,0.24-1.79,0.7c-0.44,0.47-0.71,1.09-0.8,1.87H141.04z"/>
		<path style="fill:#FFFFFF;" d="M150.22,25.1c0,0.09,0,0.17,0,0.24c0,0.08-0.01,0.16-0.04,0.26h-6.06c0.02,0.41,0.1,0.8,0.23,1.15
			c0.13,0.36,0.33,0.67,0.59,0.93c0.26,0.26,0.59,0.47,0.99,0.62c0.39,0.15,0.86,0.23,1.4,0.23c0.36,0,0.73-0.04,1.12-0.13
			c0.38-0.09,0.75-0.2,1.12-0.34l0.11,0.45c0.02,0.06,0.04,0.12,0.05,0.17c0.01,0.05,0.02,0.09,0.03,0.13
			c0.01,0.05,0.02,0.09,0.02,0.13c-0.4,0.15-0.82,0.27-1.26,0.37c-0.44,0.09-0.85,0.14-1.24,0.14c-0.69,0-1.3-0.1-1.82-0.31
			c-0.53-0.21-0.96-0.49-1.31-0.86c-0.35-0.37-0.61-0.8-0.79-1.3c-0.18-0.49-0.26-1.02-0.26-1.59c0-0.55,0.08-1.07,0.25-1.57
			c0.17-0.49,0.42-0.93,0.74-1.3c0.32-0.37,0.72-0.67,1.18-0.89c0.46-0.22,0.98-0.33,1.56-0.33c0.55,0,1.04,0.1,1.46,0.29
			c0.43,0.19,0.78,0.46,1.07,0.8c0.29,0.34,0.5,0.74,0.65,1.2C150.15,24.06,150.22,24.56,150.22,25.1z M149.22,24.78
			c-0.03-0.36-0.09-0.7-0.2-1.01c-0.11-0.31-0.26-0.58-0.47-0.82c-0.21-0.23-0.46-0.41-0.76-0.54c-0.3-0.13-0.65-0.2-1.05-0.2
			c-0.75,0-1.35,0.24-1.79,0.7c-0.44,0.47-0.71,1.09-0.8,1.87H149.22z"/>
		<path style="fill:#FFFFFF;" d="M155.32,22.3c-0.56,0.03-1.1,0.17-1.6,0.44c-0.51,0.27-0.91,0.67-1.21,1.19v5.37h-1.03v-7.84h0.99
			v1.48c0.36-0.51,0.79-0.92,1.28-1.21c0.49-0.29,1.01-0.44,1.58-0.44V22.3z"/>
		<path style="fill:#FFFFFF;" d="M157.78,18.55c0,0.21-0.07,0.39-0.22,0.53s-0.32,0.22-0.54,0.22c-0.21,0-0.39-0.07-0.53-0.22
			c-0.14-0.14-0.22-0.32-0.22-0.53c0-0.21,0.07-0.39,0.22-0.54c0.14-0.15,0.32-0.22,0.53-0.22c0.21,0,0.39,0.08,0.54,0.22
			C157.71,18.16,157.78,18.34,157.78,18.55z M156.5,29.3v-7.84h1.05v7.84H156.5z"/>
		<path style="fill:#FFFFFF;" d="M164.87,29.3v-5.05c0-0.66-0.14-1.17-0.42-1.52c-0.28-0.35-0.74-0.53-1.38-0.53
			c-0.5,0-0.99,0.15-1.46,0.45c-0.48,0.3-0.89,0.65-1.26,1.05v5.59h-1.03v-7.84h0.99v1.35c0.39-0.41,0.84-0.77,1.36-1.06
			c0.52-0.29,1.07-0.44,1.64-0.44c0.9,0,1.56,0.26,1.98,0.77c0.42,0.51,0.63,1.16,0.63,1.95v5.27H164.87z"/>
		<path style="fill:#FFFFFF;" d="M174.5,30.07c0,1.19-0.28,2.06-0.84,2.63c-0.56,0.56-1.38,0.84-2.44,0.84
			c-0.46,0-0.9-0.04-1.32-0.12c-0.42-0.08-0.85-0.19-1.29-0.33l0.19-0.96c0.41,0.16,0.81,0.28,1.19,0.35
			c0.38,0.07,0.75,0.1,1.12,0.1c0.83,0,1.43-0.2,1.8-0.59c0.38-0.39,0.56-1.01,0.56-1.85v-1.73c-0.31,0.29-0.69,0.53-1.14,0.73
			c-0.45,0.2-0.96,0.3-1.52,0.3c-0.55,0-1.06-0.1-1.53-0.3c-0.47-0.2-0.87-0.48-1.21-0.84c-0.34-0.36-0.6-0.78-0.79-1.28
			c-0.19-0.49-0.28-1.03-0.28-1.62c0-0.58,0.1-1.11,0.3-1.61c0.2-0.5,0.48-0.94,0.83-1.3c0.35-0.37,0.76-0.66,1.23-0.87
			c0.47-0.21,0.97-0.32,1.49-0.32c0.56,0,1.08,0.1,1.54,0.31c0.46,0.21,0.84,0.46,1.13,0.76v-0.92h0.99V30.07z M173.47,23.43
			c-0.29-0.34-0.65-0.63-1.1-0.86c-0.44-0.24-0.93-0.36-1.45-0.36c-0.43,0-0.81,0.08-1.16,0.24c-0.35,0.16-0.65,0.38-0.91,0.67
			c-0.26,0.29-0.46,0.63-0.6,1.01c-0.14,0.39-0.22,0.82-0.22,1.3c0,0.45,0.07,0.87,0.22,1.25c0.14,0.38,0.34,0.71,0.6,0.99
			c0.26,0.28,0.57,0.5,0.93,0.67c0.36,0.16,0.77,0.24,1.22,0.24c0.5,0,0.97-0.11,1.4-0.33c0.43-0.22,0.79-0.51,1.08-0.87V23.43z"/>
	</g>
</g>
</svg>
