<?xml version="1.0" encoding="utf-8"?>
<!-- Generator: Adobe Illustrator 17.0.2, SVG Export Plug-In . SVG Version: 6.00 Build 0)  -->
<!DOCTYPE svg PUBLIC "-//W3C//DTD SVG 1.1//EN" "http://www.w3.org/Graphics/SVG/1.1/DTD/svg11.dtd">
<svg version="1.1" xmlns="http://www.w3.org/2000/svg" xmlns:xlink="http://www.w3.org/1999/xlink" x="0px" y="0px" width="224px"
	 height="160px" viewBox="0 0 224 160" style="enable-background:new 0 0 224 160;" xml:space="preserve">
<g id="Layer_1">
	<rect style="display:none;fill-rule:evenodd;clip-rule:evenodd;fill:#16192A;" width="224" height="160"/>
	
		<image style="display:none;overflow:visible;" width="446" height="322" xlink:href="../computer_guide.jpg"  transform="matrix(0.4955 0 0 0.4955 1.5 0.222)">
	</image>
	<g id="iMac" style="display:none;">
		<path style="display:inline;fill-rule:evenodd;clip-rule:evenodd;fill:#FFFFFF;" d="M92.06,144.82c0,0-9.97,4.99-14.96,9.97
			c-4.99,4.99,4.99,4.99,4.99,4.99h59.83c0,0,9.97,0,4.99-4.99c-4.99-4.99-14.96-9.97-14.96-9.97v-14.96H92.06V144.82z"/>
		<path style="display:inline;fill-rule:evenodd;clip-rule:evenodd;fill:#FFFFFF;" d="M181.81,0.22H42.19
			c-5.51,0-9.97,4.46-9.97,9.97V114.9c0,5.51,4.46,9.97,9.97,9.97h139.61c5.51,0,9.97-4.46,9.97-9.97V10.19
			C191.78,4.69,187.31,0.22,181.81,0.22z M181.81,89.97c0,5.51-4.46,9.97-9.97,9.97H52.17c-5.51,0-9.97-4.46-9.97-9.97V20.17
			c0-5.51,4.47-9.97,9.97-9.97h119.67c5.51,0,9.97,4.47,9.97,9.97V89.97z"/>
	</g>
	<rect id="Bar1" x="58.48" y="37.63" style="fill-rule:evenodd;clip-rule:evenodd;fill:#2A9E6A;" width="12.39" height="52.52"/>
	
		<rect id="Bar2" x="77.81" y="21.53" style="display:none;fill-rule:evenodd;clip-rule:evenodd;fill:#5C8C81;" width="12.39" height="68.63"/>
	
		<rect id="Bar3" x="98.62" y="55.84" style="display:none;fill-rule:evenodd;clip-rule:evenodd;fill:#E0F2C2;" width="12.39" height="34.31"/>
	<path id="Page" style="display:none;fill-rule:evenodd;clip-rule:evenodd;fill:#FFFFFF;" d="M123.64,16.33v76.06h48.81V16.33
		H123.64z M129.26,22.54h33.7v2.48h-33.7V22.54z M129.26,27.41h22.88v2.48h-22.88V27.41z M129.84,51.54v-3.96h10.9v3.96H129.84z
		 M140.74,54.42v3.96h-10.9v-3.96H140.74z M129.84,44.7v-3.96h10.9v3.96H129.84z M129.84,37.86V33.9h10.9v3.96H129.84z
		 M149.16,83.92h-19.33v-1.99h19.33V83.92z M165.93,79.84h-36.09v-1.99h36.09V79.84z M165.93,75.75h-36.09v-1.99h36.09V75.75z
		 M165.93,71.66h-36.09v-1.99h36.09V71.66z M165.93,67.57h-36.09v-1.99h36.09V67.57z M165.93,57.89h-21.31v-2.97h21.31V57.89z
		 M165.93,51.05h-21.31v-2.97h21.31V51.05z M165.93,44.21h-21.31v-2.97h21.31V44.21z M165.93,37.37h-21.31v-2.97h21.31V37.37z"/>
</g>
<g id="Guides" style="display:none;">
</g>
</svg>
