<?xml version="1.0" encoding="utf-8"?>
<!-- Generator: Adobe Illustrator 17.0.2, SVG Export Plug-In . SVG Version: 6.00 Build 0)  -->
<!DOCTYPE svg PUBLIC "-//W3C//DTD SVG 1.1//EN" "http://www.w3.org/Graphics/SVG/1.1/DTD/svg11.dtd">
<svg version="1.1" id="Layer_1" xmlns="http://www.w3.org/2000/svg" xmlns:xlink="http://www.w3.org/1999/xlink" x="0px" y="0px"
	 width="24px" height="40px" viewBox="0 0 24 40" style="enable-background:new 0 0 24 40;" xml:space="preserve">
<path style="fill-rule:evenodd;clip-rule:evenodd;fill:#FFFFFF;" d="M23.74,0.12c-3.85,2.24-7.83,0.35-10.69,0
	C0.4-1.43-3.63,12.27,5.59,17.75c-2.37,1.14-2.22,6.94,0.32,7.77c-5.99,0.64-7.1,8.47-3.89,11.66c3.91,3.88,15.92,3.63,19.44,0
	c2.46-2.53,2.8-7.75,0.65-10.16c-1.96-2.2-11.82-2.53-11.66-5.98c0.11-2.41,3.67-2.03,5.83-2.99c4.07-1.8,6.46-7.21,4.86-11.36
	c0.91-0.16,1.68-0.44,2.59-0.6C23.74,4.11,23.74,2.11,23.74,0.12L23.74,0.12z M8.18,12.67c-4.74-9.58,10.9-8.9,6.16,0
	C12.78,13.75,9.72,13.85,8.18,12.67L8.18,12.67z M16.93,31.5c0.42,4.3-8.96,4.49-10.04,1.5c-0.91-2.52,0.22-3.24,2.92-3.88
	C12.85,28.38,16.65,28.63,16.93,31.5L16.93,31.5z"/>
</svg>
