<?xml version="1.0" encoding="utf-8"?>
<!-- Generator: Adobe Illustrator 17.0.2, SVG Export Plug-In . SVG Version: 6.00 Build 0)  -->
<!DOCTYPE svg PUBLIC "-//W3C//DTD SVG 1.1//EN" "http://www.w3.org/Graphics/SVG/1.1/DTD/svg11.dtd">
<svg version="1.1" id="Layer_1" xmlns="http://www.w3.org/2000/svg" xmlns:xlink="http://www.w3.org/1999/xlink" x="0px" y="0px"
	 width="50px" height="40px" viewBox="0 0 50 40" style="enable-background:new 0 0 50 40;" xml:space="preserve">
<g>
	<g>
		<defs>
			<path id="SVGID_1_" d="M49.13,4.85l-4.53,4.53c0,0,0-0.41,0,0.75c0,0.83-0.13,1.62-0.33,2.39c-0.11,6.24-2.09,14.51-10.23,21.04
				C18.03,46.4,0.87,35.07,0.87,35.07c13.57,0,13.57-4.53,13.57-4.53c-3.02,0-9.05-6.05-9.05-6.05c1.51,1.51,4.52,0,4.52,0
				c-7.54-4.53-7.54-9.07-7.54-9.07c1.51,1.51,4.52,0,4.52,0c-7.54-6.04-3.02-13.6-3.02-13.6C5.39,9.38,25,12.4,25,12.4l0.25-0.12
				C25.09,11.59,25,10.12,25,9.38c0-5.43,4.39-9.07,9.8-9.07c2.98,0,5.62,1.36,7.41,3.46l0.88-0.44l4.52-3.02l-3.02,6.05L49.13,4.85
				L49.13,4.85z"/>
		</defs>
		<use xlink:href="#SVGID_1_"  style="overflow:visible;fill-rule:evenodd;clip-rule:evenodd;fill:#FFFFFF;"/>
		<clipPath id="SVGID_2_">
			<use xlink:href="#SVGID_1_"  style="overflow:visible;"/>
		</clipPath>
	</g>
</g>
</svg>
