<?xml version="1.0" encoding="utf-8"?>
<!-- Generator: Adobe Illustrator 17.0.2, SVG Export Plug-In . SVG Version: 6.00 Build 0)  -->
<!DOCTYPE svg PUBLIC "-//W3C//DTD SVG 1.1//EN" "http://www.w3.org/Graphics/SVG/1.1/DTD/svg11.dtd">
<svg version="1.1" id="Layer_1" xmlns="http://www.w3.org/2000/svg" xmlns:xlink="http://www.w3.org/1999/xlink" x="0px" y="0px"
	 width="224px" height="160px" viewBox="0 0 224 160" style="enable-background:new 0 0 224 160;" xml:space="preserve">
<image style="display:none;overflow:visible;" width="446" height="322" xlink:href="../cloud_guide.jpg"  transform="matrix(0.4969 0 0 0.4969 1.1925 0)">
</image>
<path style="fill-rule:evenodd;clip-rule:evenodd;fill:#D2E0EB;" d="M181.7,31.66C173.56,13.03,154.97,0,133.34,0
	C104.21,0,80.6,23.61,80.6,52.73c0,0.15,0,0.3,0.01,0.44c-14.97,2.51-26.38,15.51-26.38,31.19c0,17.47,14.17,31.64,31.64,31.64
	h100.21v-0.34c20.81-2.6,36.92-20.33,36.92-41.84C223,50.82,204.59,32.13,181.7,31.66z M149.16,63.27v36.91h-21.1V63.27h-15.82
	l26.37-26.36l26.37,26.36H149.16z"/>
</svg>
